<svg width="411" height="53" viewBox="0 0 411 53" fill="none" xmlns="http://www.w3.org/2000/svg">
<path d="M37.5709 27.6354L1.00003 51.1674L1.00003 35.2382L34.1868 15.3549L37.2876 13.497L33.6728 13.497L1.00003 13.497L1.00003 0.999997L74.5743 1L74.5743 13.497L41.685 13.497L38.0503 13.497L41.1735 15.3563L74.5743 35.2401L74.5743 50.3558L38.6466 27.6312L38.1074 27.2901L37.5709 27.6354Z" fill="#121212" stroke="white" stroke-width="2"/>
<path d="M407.436 40.0625C407.185 42.2728 406.034 44.5173 403.983 46.7959C400.793 50.4189 396.327 52.2305 390.585 52.2305C385.845 52.2305 381.664 50.7038 378.041 47.6504C374.418 44.597 372.606 39.6296 372.606 32.748C372.606 26.2995 374.236 21.3548 377.494 17.9141C380.775 14.4733 385.025 12.7529 390.243 12.7529C393.342 12.7529 396.133 13.334 398.617 14.4961C401.101 15.6582 403.152 17.4925 404.77 19.999C406.228 22.2093 407.174 24.7728 407.606 27.6895C407.857 29.3984 407.96 31.8594 407.914 35.0723H382.416C382.553 38.8092 383.726 41.4297 385.937 42.9336C387.281 43.8678 388.899 44.335 390.79 44.335C392.795 44.335 394.424 43.7653 395.678 42.626C396.361 42.0107 396.965 41.1562 397.489 40.0625H407.436ZM397.797 28.6465C397.637 26.0716 396.851 24.1234 395.438 22.8018C394.049 21.4574 392.317 20.7852 390.243 20.7852C387.987 20.7852 386.233 21.4915 384.979 22.9043C383.749 24.3171 382.974 26.2311 382.655 28.6465H397.797Z" fill="#121212"/>
<path d="M362.215 15.4531C365.132 17.3216 366.806 20.5345 367.239 25.0918H357.498C357.361 23.8385 357.008 22.8473 356.438 22.1182C355.368 20.7965 353.545 20.1357 350.97 20.1357C348.851 20.1357 347.335 20.4661 346.424 21.127C345.535 21.7878 345.091 22.5625 345.091 23.4512C345.091 24.5677 345.569 25.3766 346.526 25.8779C347.483 26.402 350.867 27.3021 356.678 28.5781C360.551 29.4896 363.457 30.8682 365.394 32.7139C367.308 34.5824 368.265 36.918 368.265 39.7207C368.265 43.4121 366.886 46.4313 364.129 48.7783C361.395 51.1025 357.156 52.2646 351.414 52.2646C345.558 52.2646 341.229 51.0342 338.426 48.5732C335.646 46.0895 334.256 42.9336 334.256 39.1055H344.134C344.339 40.8372 344.783 42.0677 345.467 42.7969C346.674 44.0957 348.908 44.7451 352.166 44.7451C354.08 44.7451 355.595 44.4603 356.712 43.8906C357.851 43.321 358.421 42.4665 358.421 41.3271C358.421 40.2334 357.965 39.4017 357.054 38.832C356.142 38.2624 352.758 37.2826 346.902 35.8926C342.687 34.8444 339.713 33.5342 337.981 31.9619C336.25 30.4124 335.384 28.1794 335.384 25.2627C335.384 21.8219 336.728 18.8711 339.417 16.4102C342.129 13.9264 345.934 12.6846 350.833 12.6846C355.481 12.6846 359.275 13.6074 362.215 15.4531Z" fill="#121212"/>
<path d="M329.436 40.0625C329.185 42.2728 328.034 44.5173 325.983 46.7959C322.793 50.4189 318.327 52.2305 312.585 52.2305C307.845 52.2305 303.664 50.7038 300.041 47.6504C296.418 44.597 294.606 39.6296 294.606 32.748C294.606 26.2995 296.236 21.3548 299.494 17.9141C302.775 14.4733 307.025 12.7529 312.243 12.7529C315.342 12.7529 318.133 13.334 320.617 14.4961C323.101 15.6582 325.152 17.4925 326.77 19.999C328.228 22.2093 329.174 24.7728 329.606 27.6895C329.857 29.3984 329.96 31.8594 329.914 35.0723H304.416C304.553 38.8092 305.726 41.4297 307.937 42.9336C309.281 43.8678 310.899 44.335 312.79 44.335C314.795 44.335 316.424 43.7653 317.678 42.626C318.361 42.0107 318.965 41.1562 319.489 40.0625H329.436ZM319.797 28.6465C319.637 26.0716 318.851 24.1234 317.438 22.8018C316.049 21.4574 314.317 20.7852 312.243 20.7852C309.987 20.7852 308.233 21.4915 306.979 22.9043C305.749 24.3171 304.974 26.2311 304.655 28.6465H319.797Z" fill="#121212"/>
<path d="M277.751 0.619141H287.492V51H277.751V0.619141Z" fill="#121212"/>
<path d="M270.436 40.0625C270.185 42.2728 269.034 44.5173 266.983 46.7959C263.793 50.4189 259.327 52.2305 253.585 52.2305C248.845 52.2305 244.664 50.7038 241.041 47.6504C237.418 44.597 235.606 39.6296 235.606 32.748C235.606 26.2995 237.236 21.3548 240.494 17.9141C243.775 14.4733 248.025 12.7529 253.243 12.7529C256.342 12.7529 259.133 13.334 261.617 14.4961C264.101 15.6582 266.152 17.4925 267.77 19.999C269.228 22.2093 270.174 24.7728 270.606 27.6895C270.857 29.3984 270.96 31.8594 270.914 35.0723H245.416C245.553 38.8092 246.726 41.4297 248.937 42.9336C250.281 43.8678 251.899 44.335 253.79 44.335C255.795 44.335 257.424 43.7653 258.678 42.626C259.361 42.0107 259.965 41.1562 260.489 40.0625H270.436ZM260.797 28.6465C260.637 26.0716 259.851 24.1234 258.438 22.8018C257.049 21.4574 255.317 20.7852 253.243 20.7852C250.987 20.7852 249.233 21.4915 247.979 22.9043C246.749 24.3171 245.974 26.2311 245.655 28.6465H260.797Z" fill="#121212"/>
<path d="M195.889 13.7441H206.826L214.585 41.2246L222.515 13.7441H232.974L219.541 51H209.253L195.889 13.7441Z" fill="#121212"/>
<path d="M161.947 17.7773C164.522 14.4961 168.943 12.8555 175.209 12.8555C179.288 12.8555 182.911 13.6644 186.078 15.2822C189.245 16.9001 190.829 19.9535 190.829 24.4424V41.5322C190.829 42.7171 190.852 44.1527 190.897 45.8389C190.966 47.1149 191.16 47.9808 191.479 48.4365C191.798 48.8923 192.276 49.2682 192.914 49.5645V51H182.318C182.022 50.248 181.817 49.5417 181.703 48.8809C181.589 48.2201 181.498 47.4681 181.43 46.625C180.085 48.0833 178.536 49.3252 176.781 50.3506C174.685 51.5583 172.315 52.1621 169.672 52.1621C166.299 52.1621 163.508 51.2051 161.298 49.291C159.11 47.3542 158.017 44.6198 158.017 41.0879C158.017 36.5078 159.783 33.1924 163.314 31.1416C165.251 30.0251 168.1 29.2275 171.859 28.749L175.175 28.3389C176.975 28.111 178.262 27.8262 179.037 27.4844C180.427 26.8919 181.122 25.9691 181.122 24.7158C181.122 23.1891 180.587 22.141 179.516 21.5713C178.467 20.9788 176.918 20.6826 174.867 20.6826C172.566 20.6826 170.937 21.2523 169.979 22.3916C169.296 23.2347 168.84 24.374 168.612 25.8096H159.213C159.418 22.5511 160.329 19.8737 161.947 17.7773ZM169.193 43.959C170.105 44.7109 171.221 45.0869 172.543 45.0869C174.639 45.0869 176.565 44.4717 178.319 43.2412C180.097 42.0107 181.02 39.7663 181.088 36.5078V32.8848C180.473 33.2721 179.846 33.5911 179.208 33.8418C178.593 34.0697 177.738 34.2861 176.645 34.4912L174.457 34.9014C172.406 35.266 170.937 35.7103 170.048 36.2344C168.544 37.123 167.792 38.5016 167.792 40.3701C167.792 42.0335 168.259 43.2298 169.193 43.959Z" fill="#121212"/>
<path d="M151.276 22.7334C147.357 22.7334 144.725 24.0094 143.381 26.5615C142.629 27.9971 142.253 30.2074 142.253 33.1924V51H132.443V13.7441H141.74V20.2383C143.244 17.7546 144.554 16.057 145.671 15.1455C147.494 13.6188 149.864 12.8555 152.78 12.8555C152.963 12.8555 153.111 12.8669 153.225 12.8896C153.361 12.8896 153.646 12.901 154.079 12.9238V22.9043C153.464 22.8359 152.917 22.7904 152.438 22.7676C151.96 22.7448 151.573 22.7334 151.276 22.7334Z" fill="#121212"/>
<path d="M125.602 44.0615V51.3418L120.987 51.5127C116.384 51.6722 113.24 50.8747 111.554 49.1201C110.46 48.0036 109.913 46.2832 109.913 43.959V21.0244H104.718V14.0859H109.913V3.69531H119.552V14.0859H125.602V21.0244H119.552V40.7119C119.552 42.2386 119.745 43.1956 120.133 43.583C120.52 43.9476 121.705 44.1299 123.688 44.1299C123.984 44.1299 124.291 44.1299 124.61 44.1299C124.952 44.1071 125.283 44.0843 125.602 44.0615Z" fill="#121212"/>
</svg>
