<svg width="518" height="122" viewBox="0 0 518 122" fill="none" xmlns="http://www.w3.org/2000/svg">
<mask id="path-1-inside-1_9022_8607" fill="white">
<path d="M8.48015 85.4153L12.3603 82.5451L13.1576 82.2262L13.7423 81.9604L14.5927 81.7478L15.6026 81.5352H16.8251L17.4629 81.6415L18.4197 81.9604L19.3233 82.2262L20.2269 82.4388L21.7151 82.6514H24.0007L25.6484 82.3325L26.4457 82.0136L26.871 81.6947L27.2962 81.2163L27.6151 80.6316L27.7214 80.2595V79.2496L27.5088 78.665L27.1367 77.8677L26.1268 76.9109L25.4358 76.4325L24.6917 76.2731L23.5223 76.1668H21.9809H20.4926L20.1737 76.2731L19.8548 76.3794L19.3233 76.4857L18.9512 76.592L18.7386 76.7515H18.4197H18.1539L18.3665 76.4857L18.6854 76.1668L18.9512 75.901L19.4827 75.4226L20.1206 74.838L20.9179 74.147L21.6088 73.7218L22.353 73.2434L23.044 72.6587L23.9476 72.074L24.9043 71.5425L25.8611 70.9578L26.8178 70.5326L28.0935 70.2137L29.1565 69.629L30.1664 69.2038L31.2826 68.7786L33.515 68.0344L35.8537 67.3434L39.9996 66.3867L43.0825 65.6957L45.1555 65.43L46.4311 65.111L47.8662 64.8453L50.8428 64.4732L53.0752 64.2606L58.0715 63.7291L68.7021 63.0912L79.4389 62.666H171.34H365.187H378.157L386.555 62.9318L396.707 63.1444L406.859 63.5696L415.31 63.7822L418.021 63.9417L420.626 64.1011L426.526 64.4732L434.817 65.2173L447.999 66.493L462.404 67.5029L470.642 68.247L477.977 68.8849L483.505 69.4164L485.844 69.629L487.545 69.7885L488.82 70.0542L497.697 71.7551L502.109 72.3398V78.2397L464.689 87.6477L457.088 89.4018L452.198 90.6774L447.255 91.7405L439.123 93.8666L426.526 96.6305L412.387 99.5539L396.707 102.903L376.349 105.985L360.51 106.836H40.6375H39.415L37.5546 106.783L35.0565 106.676L32.6646 106.57L31.2826 106.464L28.8908 106.251L26.2331 105.985L19.2701 104.976L14.3801 103.912L9.6495 102.637L7.57655 101.893L5.82251 101.042L4.06848 100.032L3.00543 99.3413L1.464 98.2783L0.294642 97.1089L0.188336 96.7368L0.0820312 96.2053V94.1324L0.188336 93.7071L0.294642 93.5477L0.66671 92.9099L1.19824 92.1126L1.83607 91.5279L2.68651 90.6774L4.38739 88.9234L6.08828 87.4883L8.48015 85.4153Z"/>
</mask>
<path d="M8.48015 85.4153L12.3603 82.5451L13.1576 82.2262L13.7423 81.9604L14.5927 81.7478L15.6026 81.5352H16.8251L17.4629 81.6415L18.4197 81.9604L19.3233 82.2262L20.2269 82.4388L21.7151 82.6514H24.0007L25.6484 82.3325L26.4457 82.0136L26.871 81.6947L27.2962 81.2163L27.6151 80.6316L27.7214 80.2595V79.2496L27.5088 78.665L27.1367 77.8677L26.1268 76.9109L25.4358 76.4325L24.6917 76.2731L23.5223 76.1668H21.9809H20.4926L20.1737 76.2731L19.8548 76.3794L19.3233 76.4857L18.9512 76.592L18.7386 76.7515H18.4197H18.1539L18.3665 76.4857L18.6854 76.1668L18.9512 75.901L19.4827 75.4226L20.1206 74.838L20.9179 74.147L21.6088 73.7218L22.353 73.2434L23.044 72.6587L23.9476 72.074L24.9043 71.5425L25.8611 70.9578L26.8178 70.5326L28.0935 70.2137L29.1565 69.629L30.1664 69.2038L31.2826 68.7786L33.515 68.0344L35.8537 67.3434L39.9996 66.3867L43.0825 65.6957L45.1555 65.43L46.4311 65.111L47.8662 64.8453L50.8428 64.4732L53.0752 64.2606L58.0715 63.7291L68.7021 63.0912L79.4389 62.666H171.34H365.187H378.157L386.555 62.9318L396.707 63.1444L406.859 63.5696L415.31 63.7822L418.021 63.9417L420.626 64.1011L426.526 64.4732L434.817 65.2173L447.999 66.493L462.404 67.5029L470.642 68.247L477.977 68.8849L483.505 69.4164L485.844 69.629L487.545 69.7885L488.82 70.0542L497.697 71.7551L502.109 72.3398V78.2397L464.689 87.6477L457.088 89.4018L452.198 90.6774L447.255 91.7405L439.123 93.8666L426.526 96.6305L412.387 99.5539L396.707 102.903L376.349 105.985L360.51 106.836H40.6375H39.415L37.5546 106.783L35.0565 106.676L32.6646 106.57L31.2826 106.464L28.8908 106.251L26.2331 105.985L19.2701 104.976L14.3801 103.912L9.6495 102.637L7.57655 101.893L5.82251 101.042L4.06848 100.032L3.00543 99.3413L1.464 98.2783L0.294642 97.1089L0.188336 96.7368L0.0820312 96.2053V94.1324L0.188336 93.7071L0.294642 93.5477L0.66671 92.9099L1.19824 92.1126L1.83607 91.5279L2.68651 90.6774L4.38739 88.9234L6.08828 87.4883L8.48015 85.4153Z" fill="black" stroke="white" stroke-width="2" mask="url(#path-1-inside-1_9022_8607)"/>
<path d="M13.1576 82.2293L12.3604 82.5482L18.154 76.7546H18.4198H18.7387L18.9513 76.5951L19.3233 76.4888L19.8549 76.3825L20.1738 76.2762L20.4927 76.1699H21.981H23.5224L24.6918 76.2762L25.4359 76.4357L26.1269 76.9141L27.1368 77.8708L27.5088 78.6681L27.7215 79.2528V80.2627L27.6152 80.6347L27.2962 81.2194L26.871 81.6978L26.4458 82.0167L25.6485 82.3356L24.0008 82.6545H21.7152L20.2269 82.4419L19.3233 82.2293L18.4198 81.9636L17.463 81.6446L16.8252 81.5383H15.6027L14.5928 81.7509L13.7423 81.9636L13.1576 82.2293Z" fill="black"/>
<path d="M23.2985 77.2313C23.3685 77.0738 23.5299 76.9772 23.7017 76.99L24.7581 77.0682C24.8188 77.0727 24.8777 77.0907 24.9305 77.1209L25.8765 77.6614C25.9356 77.6952 25.9853 77.7432 26.0211 77.801L26.6575 78.8291L26.8612 79.155C26.9017 79.2199 26.9232 79.2949 26.9232 79.3714V79.9984V80.3899C26.9232 80.4807 26.893 80.5689 26.8372 80.6406L26.5957 80.9512C26.5662 80.989 26.5304 81.0213 26.4898 81.0467L26.126 81.2741L25.0639 81.7798C25.028 81.7969 24.9898 81.8087 24.9505 81.8148L24.3496 81.9072C24.3291 81.9104 24.3083 81.9119 24.2875 81.9119H23.7107C23.6224 81.9119 23.5364 81.8833 23.4658 81.8303L23.3127 81.7155C23.2099 81.6384 23.1494 81.5174 23.1494 81.3889V80.2642V78.5633L23.1989 77.5236C23.2013 77.4731 23.2131 77.4234 23.2337 77.3772L23.2985 77.2313Z" fill="#F0F0F0"/>
<path d="M19.6949 77.9233L20.2043 77.1823C20.2532 77.1112 20.3234 77.0573 20.4049 77.0286L21.1062 76.7811C21.157 76.7631 21.2109 76.7554 21.2647 76.7584L22.068 76.8031C22.1156 76.8057 22.1623 76.8167 22.2061 76.8354L22.2645 76.8605C22.4146 76.9248 22.512 77.0724 22.512 77.2358V78.0827V79.2521L22.3609 81.4175C22.3554 81.4959 22.3274 81.5711 22.2802 81.634L22.0715 81.9123C22.0464 81.9458 22.0163 81.9752 21.9822 81.9996L21.8122 82.121C21.7164 82.1894 21.5959 82.2132 21.4813 82.1862L20.7579 82.016L19.6949 81.7503L18.7769 81.5462C18.7511 81.5405 18.726 81.5323 18.7018 81.5217L18.1955 81.3002C18.0167 81.222 17.9182 81.0281 17.9606 80.8376L17.9802 80.7494C17.9893 80.7082 18.0048 80.6686 18.0261 80.6322L18.7381 79.4115L19.6949 77.9233Z" fill="#F0F0F0"/>
<path d="M15.8147 79.0417L17.1921 77.6643C17.2302 77.6262 17.2755 77.596 17.3254 77.5755L18.1238 77.2467C18.1435 77.2386 18.1639 77.232 18.1847 77.2271L19.0155 77.0293C19.1577 76.9954 19.3013 77.0794 19.3414 77.2199C19.3633 77.2966 19.3506 77.3791 19.3066 77.4457L17.0792 80.8115C17.0184 80.9034 16.923 80.9668 16.8148 80.9873L13.9012 81.5399L13.6547 81.5947C13.5357 81.6211 13.4229 81.5306 13.4229 81.4087C13.4229 81.3567 13.4441 81.3069 13.4817 81.271L15.8147 79.0417Z" fill="#F0F0F0"/>
<path d="M505.915 77.4617L502.116 78.2162V72.3757L505.915 73.1172V77.4617Z" fill="#D9D9D9" stroke="black" stroke-width="0.0816612"/>
<path d="M480.968 73.8954L480.968 73.8953L480.966 73.8958L479.318 74.2679L479.318 74.2679L478.15 74.5334L478.148 74.5337L475.705 75.0118L475.705 75.0117L475.702 75.0123L472.354 75.8626L472.354 75.8627L469.91 76.447L469.909 76.4473L467.412 76.9786L467.412 76.9785L467.41 76.979L465.604 77.457L463.32 77.882L463.32 77.8816L463.315 77.8833L461.517 78.4652L460.144 78.3069L459.135 78.1475L459.135 78.1475L459.133 78.1473L458.124 78.041L458.123 78.041L456.795 77.8816L456.795 77.8815L456.794 77.8814L455.572 77.7752L455.571 77.7751L454.138 77.6159L454.137 77.6158L452.599 77.4036L451.805 77.1919L450.428 76.768L449.535 76.2957L449.228 75.886L449.127 75.229L450.002 74.5598L451.532 74.4015L451.532 74.4015L451.534 74.4013L453.658 74.0826L455.676 73.9765L455.676 73.9764L459.023 73.8702H461.627V73.8707L461.633 73.8697L466.309 73.1257L466.311 73.1255L471.89 72.4348L471.891 72.4348L471.892 72.4346L478.27 71.4247L478.27 71.4247L482.84 70.7338L482.841 70.7337L484.009 70.5744L484.01 70.5743L484.857 70.4684H486.609V70.4687L486.613 70.4682L487.092 70.415L487.093 70.4149L487.89 70.3086L487.89 70.3087L487.893 70.3081L488.901 70.0958L491.451 69.7771L491.451 69.777L493.312 69.5113L493.313 69.511L494.7 69.2542V70.0555V70.074L494.714 70.0862L495.139 70.4583L495.149 70.4664L495.161 70.4681L495.946 70.5728L496.248 70.8314L494.732 71.1851L494.732 71.1852L492.288 71.7696L492.287 71.7698L487.08 72.8855L487.079 72.8858L480.968 73.8954Z" fill="white" stroke="black" stroke-width="0.0816612"/>
<path d="M465.567 77.4832L465.567 77.4833L465.569 77.4828L471.416 76.1008L471.417 76.1007L475.721 75.038L477.739 74.6661L477.739 74.6662L477.741 74.6657L481.142 73.8687L487.04 72.9122L487.04 72.9123L487.042 72.9119L491.082 72.0614L491.082 72.0615L491.083 72.0611L496.287 70.7866H499.259H508.773V70.7868L508.777 70.7865L511.114 70.574H513.349L508.123 72.2483L508.123 72.2484L493.988 76.765L480.492 78.1465L480.492 78.1466L479.27 78.2528L479.27 78.2527L479.267 78.2531L478.205 78.4124L478.204 78.4126L477.355 78.5187L476.081 78.678L471.034 78.8905H463.596L461.794 78.6255L461.301 78.502L463.231 77.908L465.567 77.4832Z" fill="#D9D9D9" stroke="black" stroke-width="0.0816612"/>
<path d="M511.059 70.5991V70.5989L511.055 70.5993L508.825 70.8117H503.245H496.191L495.936 70.608L495.927 70.6009L495.916 70.5994L495.131 70.4948L494.676 70.0901V69.2448L504.893 69.033L509.197 69.1393L509.198 69.1393L516.822 69.6061L514.24 70.5991H511.059Z" fill="white" stroke="black" stroke-width="0.0816612"/>
<path d="M450.812 44.6234L450.812 44.6232L453.043 42.2854L453.044 42.2845L456.552 38.8305L456.552 38.8305L456.553 38.829L461.23 33.7266L461.23 33.7264L463.516 31.2818L463.516 31.2816L466.172 28.4656L466.173 28.4647L472.604 22.0873L472.604 22.0869L475.102 19.5356L475.102 19.5357L475.105 19.533L476.379 17.9933L481.586 12.9454L481.587 12.9444L489.453 4.75996L489.454 4.75888L490.992 3.27357L490.994 3.27168L492.316 2.16159L494.7 1.20807L496.395 0.731307L500.482 0.359699L500.484 0.359579L507.124 0.0408679L515.462 0.357495L512.987 6.36031L512.986 6.36275L510.011 12.4197L510.01 12.4209L499.167 36.3393L499.167 36.3395L483.924 69.4807L481.243 69.2704L481.242 69.2703L478.16 68.9515L478.16 68.9514L472.153 68.4199L472.153 68.4199L460.194 67.41L460.193 67.4099L453.921 66.9847L453.921 66.9847L448.66 66.6128L448.659 66.6127L442.282 65.9749L442.282 65.9749L430.536 64.8588L430.535 64.8587L428.304 64.593L428.304 64.593L428.301 64.5928L425.775 64.4382L425.935 64.2388L426.081 64.1412L426.444 64.0893L426.445 64.0893L427.506 63.93L427.508 63.9298L430.164 63.6111L430.164 63.6122L430.173 63.6088L432.034 62.9178L432.034 62.9179L432.036 62.9167L433.206 62.3852L433.207 62.3872L433.217 62.3779L440.073 55.9996L440.073 55.9997L440.075 55.9976L443.158 52.7021L443.158 52.7021L447.676 47.8657L447.676 47.8652L450.812 44.6234Z" fill="black" stroke="black" stroke-width="0.0816612"/>
<path d="M430.217 63.5058L430.218 63.507L430.227 63.5034L432.885 62.4935L432.891 62.4909L432.897 62.4861L435.82 59.9348L435.82 59.9348L435.822 59.9336L439.143 56.7702L443.598 60.7012L438.012 65.6023L425.538 64.497L426.084 64.0877L426.765 63.9307L430.217 63.5058Z" fill="white" stroke="black" stroke-width="0.0816612"/>
<path d="M457.239 41.5939L457.238 41.5945L457.245 41.5991L459.225 42.8493L452.187 50.8923L452.187 50.8926L449.529 53.8688L449.529 53.8693L446.553 57.3238L446.552 57.3243L443.55 60.695L439.147 56.7637L440.925 54.8814L440.926 54.8808L444.061 51.6922L444.061 51.6922L444.062 51.6913L447.357 48.1306L447.357 48.1301L452.247 43.0284L452.247 43.028L455.46 39.8676L457.239 41.5939Z" fill="white" stroke="black" stroke-width="0.0816612"/>
<path d="M457.186 41.5886L455.412 39.9189L457.19 38.0884L457.19 38.0884L457.191 38.0867L458.626 36.4396L460.167 34.7923L460.167 34.7924L460.168 34.7916L461.868 32.879L463.568 31.1789L463.568 31.179L463.569 31.178L465.907 28.6803L468.458 26.1294L468.458 26.1291L470.982 23.553L471.643 24.1634L472.546 25.0664L472.546 25.0664L472.547 25.0675L473.9 26.3163L473.236 27.0829L473.235 27.0837L472.066 28.3585L472.066 28.3593L468.398 32.5583L468.398 32.5583L465.741 35.588L465.741 35.588L462.765 38.989L462.764 38.9898L459.226 42.8444L457.186 41.5886Z" fill="white" stroke="black" stroke-width="0.0816612"/>
<path d="M495.127 45.1101L495.127 45.1102L491.832 52.3387L491.832 52.339L490.025 56.2175L490.025 56.2188L488.378 59.4599L488.377 59.4598L488.376 59.4632L487.207 62.3854L486.198 64.5103L486.198 64.5108L484.664 67.8423L484.317 67.9415L470.887 66.9329L467.634 64.7814L507.04 1.36977L515.09 1.21193L514.846 1.8452L514.846 1.84625L514.58 2.48303L514.58 2.48408L514.049 3.86489L514.049 3.86605L512.933 6.52124L512.19 8.00835L512.19 8.0089L511.499 9.44374L511.499 9.44402L510.064 12.3671L510.063 12.3679L509.372 13.8562L509.372 13.8563L508.734 15.2383L508.734 15.2388L507.459 18.1088L507.458 18.109L504.907 23.7428L504.907 23.7429L495.127 45.1101Z" fill="#666666" stroke="black" stroke-width="0.0816612"/>
<path d="M472.816 25.3249L470.986 23.5475L472.391 22.1948L472.392 22.1942L474.518 20.0681L474.518 20.0682L474.52 20.0658L476.06 18.2604L478.131 16.3486L478.131 16.3486L478.132 16.3479L479.886 14.647L479.886 14.6466L482.066 12.4673L482.066 12.4673L482.066 12.4663L484.298 10.075L484.299 10.0744L489.534 4.68098L490.62 5.61215L491.441 6.38176L487.959 10.3385L487.959 10.3385L487.958 10.3396L487.48 10.9236L486.153 12.4107L486.152 12.4112L484.877 13.7927L484.877 13.7927L484.876 13.7934L482.113 16.929L482.112 16.9294L480.093 19.1614L480.093 19.1614L480.092 19.1623L478.551 20.9686L478.551 20.9695L476 23.7857L476 23.7857L475.999 23.7866L473.848 26.3052L472.817 25.3252L472.816 25.3249Z" fill="white" stroke="black" stroke-width="0.0816612"/>
<path d="M88.1846 79.8868C88.1846 80.347 88.0431 80.7589 87.8202 81.0532C87.5974 81.3473 87.2985 81.5184 86.9782 81.5184C86.658 81.5184 86.3591 81.3473 86.1363 81.0532C85.9133 80.7589 85.7719 80.347 85.7719 79.8868C85.7719 79.4267 85.9133 79.0148 86.1363 78.7205C86.3591 78.4264 86.658 78.2553 86.9782 78.2553C87.2985 78.2553 87.5974 78.4264 87.8202 78.7205C88.0431 79.0148 88.1846 79.4267 88.1846 79.8868Z" fill="#FBFBFB" stroke="#838381" stroke-width="0.244984"/>
<path d="M104.157 79.8868C104.157 80.347 104.016 80.7589 103.793 81.0532C103.57 81.3473 103.271 81.5184 102.951 81.5184C102.631 81.5184 102.332 81.3473 102.109 81.0532C101.886 80.7589 101.745 80.347 101.745 79.8868C101.745 79.4267 101.886 79.0148 102.109 78.7205C102.332 78.4264 102.631 78.2553 102.951 78.2553C103.271 78.2553 103.57 78.4264 103.793 78.7205C104.016 79.0148 104.157 79.4267 104.157 79.8868Z" fill="#FBFBFB" stroke="#838381" stroke-width="0.244984"/>
<path d="M135.399 79.8868C135.399 80.347 135.258 80.7589 135.035 81.0532C134.812 81.3473 134.513 81.5184 134.193 81.5184C133.873 81.5184 133.574 81.3473 133.351 81.0532C133.128 80.7589 132.987 80.347 132.987 79.8868C132.987 79.4267 133.128 79.0148 133.351 78.7205C133.574 78.4264 133.873 78.2553 134.193 78.2553C134.513 78.2553 134.812 78.4264 135.035 78.7205C135.258 79.0148 135.399 79.4267 135.399 79.8868Z" fill="#FBFBFB" stroke="#838381" stroke-width="0.244984"/>
<path d="M166.643 79.8868C166.643 80.347 166.501 80.7589 166.278 81.0532C166.055 81.3473 165.757 81.5184 165.436 81.5184C165.116 81.5184 164.817 81.3473 164.594 81.0532C164.371 80.7589 164.23 80.347 164.23 79.8868C164.23 79.4267 164.371 79.0148 164.594 78.7205C164.817 78.4264 165.116 78.2553 165.436 78.2553C165.757 78.2553 166.055 78.4264 166.278 78.7205C166.501 79.0148 166.643 79.4267 166.643 79.8868Z" fill="#FBFBFB" stroke="#838381" stroke-width="0.244984"/>
<path d="M213.507 79.8868C213.507 80.347 213.365 80.7589 213.142 81.0532C212.92 81.3473 212.621 81.5184 212.3 81.5184C211.98 81.5184 211.681 81.3473 211.459 81.0532C211.236 80.7589 211.094 80.347 211.094 79.8868C211.094 79.4267 211.236 79.0148 211.459 78.7205C211.681 78.4264 211.98 78.2553 212.3 78.2553C212.621 78.2553 212.92 78.4264 213.142 78.7205C213.365 79.0148 213.507 79.4267 213.507 79.8868Z" fill="#FBFBFB" stroke="#838381" stroke-width="0.244984"/>
<path d="M119.778 79.8868C119.778 80.347 119.637 80.7589 119.414 81.0532C119.191 81.3473 118.892 81.5184 118.572 81.5184C118.252 81.5184 117.953 81.3473 117.73 81.0532C117.507 80.7589 117.366 80.347 117.366 79.8868C117.366 79.4267 117.507 79.0148 117.73 78.7205C117.953 78.4264 118.252 78.2553 118.572 78.2553C118.892 78.2553 119.191 78.4264 119.414 78.7205C119.637 79.0148 119.778 79.4267 119.778 79.8868Z" fill="#FBFBFB" stroke="#838381" stroke-width="0.244984"/>
<path d="M151.021 79.8868C151.021 80.347 150.88 80.7589 150.657 81.0532C150.434 81.3473 150.135 81.5184 149.815 81.5184C149.495 81.5184 149.196 81.3473 148.973 81.0532C148.75 80.7589 148.609 80.347 148.609 79.8868C148.609 79.4267 148.75 79.0148 148.973 78.7205C149.196 78.4264 149.495 78.2553 149.815 78.2553C150.135 78.2553 150.434 78.4264 150.657 78.7205C150.88 79.0148 151.021 79.4267 151.021 79.8868Z" fill="#FBFBFB" stroke="#838381" stroke-width="0.244984"/>
<path d="M182.264 79.8868C182.264 80.347 182.122 80.7589 181.899 81.0532C181.676 81.3473 181.378 81.5184 181.057 81.5184C180.737 81.5184 180.438 81.3473 180.215 81.0532C179.992 80.7589 179.851 80.347 179.851 79.8868C179.851 79.4267 179.992 79.0148 180.215 78.7205C180.438 78.4264 180.737 78.2553 181.057 78.2553C181.378 78.2553 181.676 78.4264 181.899 78.7205C182.122 79.0148 182.264 79.4267 182.264 79.8868Z" fill="#FBFBFB" stroke="#838381" stroke-width="0.244984"/>
<path d="M229.128 79.8868C229.128 80.347 228.986 80.7589 228.764 81.0532C228.541 81.3473 228.242 81.5184 227.922 81.5184C227.601 81.5184 227.302 81.3473 227.08 81.0532C226.857 80.7589 226.715 80.347 226.715 79.8868C226.715 79.4267 226.857 79.0148 227.08 78.7205C227.302 78.4264 227.601 78.2553 227.922 78.2553C228.242 78.2553 228.541 78.4264 228.764 78.7205C228.986 79.0148 229.128 79.4267 229.128 79.8868Z" fill="#FBFBFB" stroke="#838381" stroke-width="0.244984"/>
<path d="M260.371 79.8868C260.371 80.347 260.23 80.7589 260.007 81.0532C259.784 81.3473 259.485 81.5184 259.165 81.5184C258.844 81.5184 258.546 81.3473 258.323 81.0532C258.1 80.7589 257.958 80.347 257.958 79.8868C257.958 79.4267 258.1 79.0148 258.323 78.7205C258.546 78.4264 258.844 78.2553 259.165 78.2553C259.485 78.2553 259.784 78.4264 260.007 78.7205C260.23 79.0148 260.371 79.4267 260.371 79.8868Z" fill="#FBFBFB" stroke="#838381" stroke-width="0.244984"/>
<path d="M197.885 79.8868C197.885 80.347 197.743 80.7589 197.52 81.0532C197.298 81.3473 196.999 81.5184 196.678 81.5184C196.358 81.5184 196.059 81.3473 195.836 81.0532C195.614 80.7589 195.472 80.347 195.472 79.8868C195.472 79.4267 195.614 79.0148 195.836 78.7205C196.059 78.4264 196.358 78.2553 196.678 78.2553C196.999 78.2553 197.298 78.4264 197.52 78.7205C197.743 79.0148 197.885 79.4267 197.885 79.8868Z" fill="#FBFBFB" stroke="#838381" stroke-width="0.244984"/>
<path d="M244.749 79.8868C244.749 80.347 244.608 80.7589 244.385 81.0532C244.162 81.3473 243.863 81.5184 243.543 81.5184C243.222 81.5184 242.924 81.3473 242.701 81.0532C242.478 80.7589 242.336 80.347 242.336 79.8868C242.336 79.4267 242.478 79.0148 242.701 78.7205C242.924 78.4264 243.222 78.2553 243.543 78.2553C243.863 78.2553 244.162 78.4264 244.385 78.7205C244.608 79.0148 244.749 79.4267 244.749 79.8868Z" fill="#FBFBFB" stroke="#838381" stroke-width="0.244984"/>
<path d="M275.992 79.8868C275.992 80.347 275.851 80.7589 275.628 81.0532C275.405 81.3473 275.106 81.5184 274.786 81.5184C274.466 81.5184 274.167 81.3473 273.944 81.0532C273.721 80.7589 273.58 80.347 273.58 79.8868C273.58 79.4267 273.721 79.0148 273.944 78.7205C274.167 78.4264 274.466 78.2553 274.786 78.2553C275.106 78.2553 275.405 78.4264 275.628 78.7205C275.851 79.0148 275.992 79.4267 275.992 79.8868Z" fill="#FBFBFB" stroke="#838381" stroke-width="0.244984"/>
<path d="M157.468 95.3272L157.476 95.323L157.485 95.3184L160.725 93.619L160.727 93.6176L163.862 91.9983L168.699 90.802L208.344 89.1568L270.037 88.8379L282.164 89.1556L289.55 90.4745L297.132 92.4227L305.905 96.9153L305.975 96.9507L306.051 96.9634L307.305 97.1724L309.926 97.854L312.028 98.5371L314.241 99.3604L315.858 100.523L317.197 101.812L317.51 102.516L317.331 103.16L316.309 104.089L314.818 104.934L310.815 106.026L300.918 107.455L291.316 108.356L291.31 108.357L272.357 109.897L233.688 110.587L195.062 109.631L175.895 108.728L156.218 106.612L153.635 105.424L153.619 105.417L153.602 105.41L150.796 104.351L148.995 103.58L148.029 102.89L147.743 102.282L148.069 101.263L148.908 100.471L151.527 98.5854L154.253 96.8556L157.468 95.3272Z" fill="url(#paint0_linear_9022_8607)" stroke="white"/>
<path d="M299.164 93.0732L299.164 93.0738L299.175 93.0787L303.474 94.9363L306.352 96.5809L306.071 97.3318L306.048 97.3928L306.085 97.4465L306.67 98.2969L306.67 98.2978L307.413 99.3585L307.414 99.3608L307.745 99.857L305.691 100.493H302.627V100.493L302.616 100.493L295.073 101.131L276.956 101.397L271.173 101.131L267.14 100.494L267.13 100.493H267.121H261.433H261.424L261.415 100.494L251.849 101.929L251.847 101.929L243.459 103.044H237.463H237.462L165.234 100.918L165.232 100.918L163.341 100.813L162.038 100.292L161.312 99.9051V98.953L163.255 95.8558L165.738 93.0032L169.384 90.3084L173.558 88.4061L179.166 87.2422H268.708L278.108 88.3042L278.109 88.3044L285.65 89.2603L293.238 90.9052L293.245 90.9069L297.264 92.0174L299.164 93.0732Z" fill="black" stroke="white" stroke-width="0.25"/>
<path d="M267.226 100.561V99.2324L273.072 100.083L281.47 100.402L307.994 100.083L305.495 100.561L296.885 101.093H292.26L284.766 101.571H275.73L270.787 101.199L267.226 100.561Z" fill="#C4C4C4" stroke="white" stroke-width="0.25"/>
<path d="M197.117 88.1409L197.119 88.1409L205.942 87.9814L205.942 87.9815L205.946 87.9813L209.029 87.8218L209.029 87.8218L209.032 87.8217L211.988 87.6105L213.67 88.0309L213.67 88.0314L213.682 88.0332L215.115 88.2455L215.117 88.2459L216.706 88.5107L216.709 88.5113L219.205 88.9891L219.205 88.9894L219.214 88.9905L222.403 89.3626L222.405 89.3628L228.145 89.9474L228.145 89.9475L228.15 89.9478L231.392 90.1604L231.392 90.1605L231.395 90.1606L235.169 90.32L235.169 90.3202H235.174L239.798 90.3202L239.801 90.3201L245.328 90.2139L245.333 90.2137L248.309 90.0542L248.309 90.0544L248.316 90.0537L250.789 89.7905L252.714 90.3539L252.656 90.4003L251.515 90.7115L251.512 90.7124L249.341 91.2419L246.688 91.6663L246.688 91.6662L246.683 91.6673L242.324 92.5709L242.305 92.5749L242.288 92.5844L239.366 94.2313L239.365 94.2322L236.443 95.8259L236.443 95.8258L236.439 95.8282L229.237 100.118L226.132 100.276L226.125 100.276L226.117 100.277L221.025 101.126H218.6L217.601 100.968L217.6 100.968L214.694 100.492L211.892 99.2235L211.882 99.2193L211.872 99.2166L210.278 98.7914L210.278 98.7909L210.266 98.7889L203.941 97.7259L203.932 97.7244L203.924 97.7242L195.047 97.4584L195.047 97.4584H195.044H184.425L178.594 96.3552L177.211 93.8973L178.086 90.2425L182.365 89.0424L189.842 88.1409L197.117 88.1409Z" fill="black" stroke="white" stroke-width="0.25"/>
<path d="M264.94 84.7772L260.848 83.7141H262.389L268.236 83.3952L271.478 83.1295L275.943 82.5448L280.036 81.6412L282.481 81.3223H287.052L288.965 81.5349L291.304 82.1196L293.696 82.7574L295.928 83.3421L297.045 83.661L297.257 84.2457L297.045 84.9366L296.513 85.2556L294.972 85.5213L292.367 86.0528L289.178 86.9033L285.351 87.5411L280.036 88.0726L277.484 87.8069L274.083 87.3285L269.086 86.106L267.12 85.5213L264.94 84.7772Z" fill="black" stroke="white" stroke-width="0.25"/>
<path d="M250.802 89.7205L245.168 88.0728L253.194 87.5944L257.818 87.1692L264.516 86.053L267.067 85.5215L267.758 85.7341L269.406 86.2125L271.851 86.8503L273.87 87.2755L277.591 87.8602L280.036 88.0728L284.714 87.5413H285.298L285.458 87.8602V88.3386L284.82 88.6043L283.278 89.1359L279.345 90.2521L275.306 91.1025L271.319 91.8466L269.671 92.0061L267.917 92.2719H265.207H263.506L261.539 92.0593L260.104 91.7935L258.828 91.634L255.533 90.8899L253.407 90.4115L250.802 89.7205Z" fill="black" stroke="white" stroke-width="0.25"/>
<path d="M243.095 95.5657L238.736 94.6621L241.66 94.3432L244.105 93.9711L250.377 93.1207L255.373 92.2702L257.712 91.8982L258.669 91.6855H259.519L261.539 92.1108L264.303 92.2702H267.12L268.874 92.1108L270.415 91.8982H271.425L271.904 92.1108L272.541 92.2702L273.445 92.4828L274.349 92.7486L275.04 92.8549L275.412 93.2801V93.9711L275.252 94.6621L274.614 94.8747L273.073 95.2468L271.425 95.7251L269.724 96.2567L266.641 97.1603L263.452 97.8513L260.582 98.3828L257.712 98.5422L253.513 98.117L249.048 97.1603L243.095 95.5657Z" fill="black" stroke="white" stroke-width="0.25"/>
<path d="M214.463 85.4313L214.463 85.4314L214.468 85.4304L217.547 84.8465L221.529 84.3686L221.529 84.3686L221.532 84.3682L228.122 83.4116L228.123 83.4114L235.243 82.455L235.244 82.4549L273.992 77.565L290.468 75.4922L290.469 75.492L300.51 74.3231L300.514 74.3228L304.603 73.9511L304.604 73.951L310.822 73.3664L310.835 73.3651L310.848 73.3614L316.27 71.6928L316.491 72.1774L316.524 72.2507H316.604H317.852L317.658 72.7154L317.649 72.7385V72.7635V73.172L317.037 73.5486L314.252 74.0741L307.67 74.3395L307.67 74.339L307.658 74.3405L303.672 74.872L303.671 74.8722L295.859 75.9882L295.857 75.9884L280.87 77.9548L280.868 77.9551L275.021 78.8055L275.021 78.8056L235.209 84.7587L235.207 84.7591L226.226 86.3001L226.224 86.3006L220.911 87.0974L220.911 87.0969L220.9 87.0996L216.141 88.2629L214.204 87.9489L212.03 87.4185L212.011 87.414L211.992 87.4152L207.104 87.734L201.208 87.8933H197.269L204.256 86.9729L204.256 86.9729L204.259 86.9724L209.255 86.1753L209.256 86.1751L214.463 85.4313Z" fill="black" stroke="white" stroke-width="0.25"/>
<path d="M219.512 88.7978L216.779 88.364L220.954 87.3435L226.264 86.5471L226.264 86.5471L226.266 86.5467L235.247 85.0057L235.249 85.0052L275.057 79.0526L275.058 79.0526L280.902 78.2024L280.904 78.2022L295.892 76.2358L295.893 76.2356L303.705 75.1196L303.706 75.1194L307.686 74.5888L314.271 74.3233L314.28 74.3229L314.289 74.3212L317.106 73.7897L317.129 73.7854L317.149 73.7733L317.84 73.3481L317.899 73.3115V73.2416V72.7882L318.144 72.2011L319.519 71.03L321.861 71.1341L321.861 71.1342H321.867H324.737V71.1347L324.748 71.1338L327.884 70.868L327.885 70.8679L329.575 70.7094L331.307 70.8393L329.834 71.7492L326.825 73.1216L318.389 74.7134L318.389 74.7132L318.383 74.7146L310.839 76.521L307.017 77.2111L307.015 77.2114L304.465 77.6363L304.465 77.6361L304.458 77.6378L301.221 78.3809L301.216 78.3819L299.52 78.6998L299.52 78.6997L299.514 78.7009L297.92 79.073L297.583 79.1517L297.892 79.3065L298.318 79.5191L298.344 79.5323H298.373H298.993V79.5821L298.828 79.8293L297.827 80.0796H294.121H294.106L294.091 80.0833L293.666 80.1895L293.666 80.1896L289.524 81.1986L289.521 81.1994L249.562 89.7543L244.845 90.0723H238.152H233.583L228.594 89.86L224.506 89.3822L219.512 88.7978Z" fill="black" stroke="white" stroke-width="0.25"/>
<path d="M316.551 72.1779L316.285 71.5933L318.89 70.477L321.654 68.8293L327.872 64.524L329.839 63.1951L332.178 61.7069L334.835 60.0591L337.865 58.5709L340.416 57.1889L342.596 56.7637L342.861 57.0294L340.416 57.7204L337.546 59.0492L334.091 60.9627L329.467 63.9924L323.992 67.8194L321.733 69.3874L319.474 70.9554L318.039 72.1779H316.551Z" fill="black" stroke="white" stroke-width="0.25"/>
<path d="M329.468 63.9924L323.994 67.8194L321.735 69.3874L319.582 70.9023L322.187 71.0617H324.844L328.352 70.7428L329.575 70.6365L331.329 70.7428H331.648L336.325 66.3843L340.737 61.7069L343.448 59.2618L346.105 56.7637H342.597L342.278 56.9763L340.577 57.5078L337.548 59.0492L334.093 60.9627L329.468 63.9924Z" fill="black" stroke="white" stroke-width="0.25"/>
<path d="M166.201 104.967L165.566 92.9571L166.15 92.373L167.068 91.9142L168.087 91.8215L168.875 102.377L169.715 118.392L167.285 117.42L166.996 116.794L166.786 114.371L166.786 114.371L166.626 112.459L166.201 104.967L166.201 104.967Z" fill="url(#paint1_radial_9022_8607)" stroke="white" stroke-width="0.25"/>
<path d="M209.448 116.048H210.386V116.36L206.973 117.343L203.633 118.085L200.351 118.509H197.17H197.159L197.147 118.511L192.638 119.36L189.46 119.466L189.459 119.466L183.244 119.625L175.761 119.413L169.915 118.473L169.762 116.235L169.656 113.526L169.656 113.526L169.656 113.523L169.443 110.176L169.443 110.175L169.23 106.136L169.23 106.136L168.965 101.405L168.965 101.405L168.964 101.402L168.592 97.0442L168.228 91.7821L169.663 91.4356L171.676 91.0649L175.757 90.5879H187.011L191.36 91.0652L194.706 91.5962L194.707 91.5964L201.085 92.5532L201.085 92.5532L201.089 92.5537L205.227 93.0311L208.34 93.8227L209.337 94.3473L209.35 94.3543L209.365 94.358L210.617 94.671L211.131 95.0445V95.2279H209.874H209.749V95.3529V96.3084V96.3097L209.323 115.92L209.321 116.048H209.448Z" fill="#1D1D1D" stroke="white" stroke-width="0.25"/>
<path d="M209.237 115.869L198.234 117.836L196.64 118.527" stroke="white" stroke-width="0.25"/>
<path d="M206.951 93.332L206.473 116.453" stroke="white" stroke-width="0.25"/>
<path d="M202.859 92.75L202.699 93.9194L207.27 94.8761L209.769 95.4076" stroke="white" stroke-width="0.25"/>
<path d="M192.494 119.163L193.132 91.3105" stroke="white" stroke-width="0.25"/>
<path d="M176.336 96.0957L168.682 96.5741" stroke="white" stroke-width="0.25"/>
<path d="M175.963 117.413L169.903 116.615" stroke="white" stroke-width="0.25"/>
<path d="M175.858 119.272L176.496 90.6758" stroke="white" stroke-width="0.25"/>
<path d="M211.767 111.738L209.523 112.502L209.834 98.8602L211.819 99.3803L211.767 111.738Z" fill="#8C8C8C"/>
<path d="M211.767 111.738L209.523 112.502L209.834 98.8602L211.819 99.3803L211.767 111.738Z" fill="url(#paint2_radial_9022_8607)"/>
<path d="M211.767 111.738L209.523 112.502L209.834 98.8602L211.819 99.3803L211.767 111.738Z" stroke="white" stroke-width="0.25"/>
<path d="M214.638 111.088L211.912 111.672L211.963 99.4738L214.638 100.641V111.088Z" fill="#D0D3D7" stroke="white" stroke-width="0.25"/>
<path d="M220.082 103.333L220.09 103.336L220.098 103.338L221.897 103.814L224.014 104.714L224.014 104.715L224.019 104.716L225.214 105.164V106.05L221.739 107.191L221.739 107.191L221.736 107.192L218.122 108.468L218.122 108.468L218.121 108.468L214.78 109.683V101.318L217.003 102.059L220.082 103.333Z" fill="url(#paint3_linear_9022_8607)" stroke="white" stroke-width="0.25"/>
<path d="M183.031 120.547L182.925 119.696L185.689 119.59V120.44L186.273 120.547L186.38 120.759L186.273 121.025L184.2 120.759L183.031 120.547Z" fill="black" stroke="white" stroke-width="0.25"/>
<path d="M290.506 59.6903L288.167 62.72H290.187L291.197 59.7966L290.825 59.584L290.506 59.6903Z" fill="white" stroke="black" stroke-width="0.0816612"/>
<path d="M465.554 63.7838L460.945 57.8071L461.8 56.4666L469.163 58.1268L468.432 59.2734L466.698 58.8673L465.187 61.2363L466.286 62.6372L465.554 63.7838ZM464.455 60.3189L465.558 58.5907L462.48 57.8372L464.455 60.3189ZM470.679 55.973C469.824 57.3135 468.338 57.5987 466.913 56.6898C465.496 55.7863 465.12 54.3125 465.975 52.972C466.706 51.8255 467.852 51.4057 469.009 51.9538L468.358 53.1043C467.731 52.8229 467.185 53.0087 466.852 53.5314C466.405 54.2311 466.701 54.9769 467.628 55.5685C468.564 56.1655 469.356 56.1134 469.803 55.4137C470.136 54.891 470.074 54.318 469.496 53.8303L470.256 52.7497C471.255 53.5646 471.422 54.8096 470.679 55.973ZM472.155 53.437L467.653 50.5651L468.277 49.5872L469.052 50.0459C468.643 49.4771 468.622 48.8229 468.982 48.258C469.402 47.6004 470.038 47.3657 470.743 47.5429C470.274 46.9587 470.241 46.2853 470.639 45.6614C471.23 44.734 472.194 44.5426 473.307 45.2525L476.199 47.0972L475.511 48.1763L472.897 46.5091C472.155 46.0358 471.628 46.0437 471.295 46.5664C470.967 47.0806 471.189 47.6615 471.914 48.124L474.494 49.7697L473.854 50.7729L471.274 49.1272C470.541 48.6593 469.999 48.5982 469.649 49.1462C469.321 49.6604 469.547 50.2551 470.263 50.7122L472.843 52.3579L472.155 53.437ZM477.967 44.549C477.106 45.8979 475.63 46.1662 474.206 45.2573C472.789 44.3538 472.402 42.8969 473.246 41.5733C474.069 40.2834 475.506 40.002 477.024 40.97L477.268 41.126L475.224 44.3297C476.044 44.793 476.704 44.6327 477.112 43.992C477.419 43.5114 477.401 43.0374 477.085 42.6582L477.857 41.5968C478.578 42.4006 478.628 43.512 477.967 44.549ZM475.828 41.7848C475.062 41.3675 474.464 41.5432 474.098 42.1165C473.727 42.6982 473.853 43.3365 474.499 43.8671L475.828 41.7848ZM480.292 40.6817L475.683 34.7051L476.538 33.3646L483.9 35.0247L483.169 36.1713L481.435 35.7652L479.924 38.1342L481.023 39.5352L480.292 40.6817ZM479.192 37.2169L480.295 35.4886L477.217 34.7351L479.192 37.2169ZM484.136 34.6557L479.634 31.7838L480.322 30.7047L484.824 33.5766L484.136 34.6557ZM479.024 31.4188L478.063 30.8057L478.779 29.6845L479.74 30.2976L479.024 31.4188ZM485.243 32.9202L480.741 30.0483L481.386 29.0366L482.271 29.5653C481.777 29.001 481.741 28.4802 482.091 27.9322L482.354 27.5191L483.282 28.1107L483.013 28.5322C482.572 29.2235 482.643 29.7436 483.335 30.1846L485.931 31.841L485.243 32.9202ZM487.793 28.9231L482.43 27.4001L483.135 26.2957L486.968 27.5194L484.269 24.5168L484.866 23.581L488.727 24.7626L486.007 21.7937L486.711 20.6893L490.347 24.9185L489.637 26.0314L486.049 24.9997L488.502 27.8103L487.793 28.9231ZM492.273 22.1222C491.671 23.0665 490.826 23.4053 490.042 22.9051C489.266 22.4104 489.16 21.6663 489.595 20.5562L490.252 18.8757C489.62 18.4724 489.103 18.5577 488.742 19.1226C488.404 19.6537 488.465 20.0963 488.856 20.4879L488.101 21.56C487.27 20.7807 487.193 19.7114 487.908 18.5901C488.725 17.3087 489.819 17.0813 491.016 17.845L492.652 18.8884C492.896 19.0443 493.018 19.003 493.125 18.8344L493.217 18.6911L494.001 19.1913C493.975 19.2695 493.878 19.4573 493.787 19.6006C493.475 20.0896 493.067 20.3392 492.451 20.0769C492.792 20.6027 492.747 21.3803 492.273 22.1222ZM491.629 21.4029C492.086 20.6863 491.921 19.9406 491.238 19.505L490.986 19.3436L490.479 20.6577C490.266 21.1974 490.344 21.5203 490.656 21.7193C491.01 21.9452 491.355 21.8328 491.629 21.4029ZM495.569 19.5222L494.734 18.9898L495.1 18.4165C495.288 18.1215 495.279 17.9496 495.122 17.7309L494.885 17.4139L494.686 17.7258L489.34 16.5687L490.05 15.4558L494.089 16.4313L491.459 13.247L492.174 12.1257L496.024 17.0608C496.457 17.6096 496.478 18.0975 496.058 18.755L495.569 19.5222ZM498.035 13.0896C497.186 14.4217 496.107 14.7181 495.179 14.2208L495.833 13.0841C496.353 13.3094 496.811 13.1864 497.209 12.5626C497.532 12.0567 497.574 11.6564 497.22 11.4305C496.916 11.2369 496.684 11.3026 496.009 12.0458C494.891 13.2779 494.245 13.4712 493.478 12.9818C492.644 12.4494 492.481 11.4207 493.277 10.173C494.052 8.95895 495.099 8.74919 496.048 9.17667L495.399 10.3049C494.896 10.0904 494.415 10.211 494.098 10.7084C493.77 11.2227 493.831 11.6293 494.16 11.839C494.522 12.0703 494.816 11.9256 495.361 11.3127C496.484 10.0362 497.168 9.81986 497.918 10.2985C498.786 10.8524 498.767 11.943 498.035 13.0896Z" fill="white"/>
<defs>
<linearGradient id="paint0_linear_9022_8607" x1="232.623" y1="88.3379" x2="232.623" y2="111.087" gradientUnits="userSpaceOnUse">
<stop offset="1" stop-color="#000E28"/>
</linearGradient>
<radialGradient id="paint1_radial_9022_8607" cx="0" cy="0" r="1" gradientUnits="userSpaceOnUse" gradientTransform="translate(167.618 105.133) rotate(86.6203) scale(13.5243 2.21841)">
<stop stop-color="#DFE4E8"/>
<stop offset="1" stop-color="#727F87"/>
</radialGradient>
<radialGradient id="paint2_radial_9022_8607" cx="0" cy="0" r="1" gradientUnits="userSpaceOnUse" gradientTransform="translate(210.654 105.689) rotate(86.2406) scale(7.03233 1.28241)">
<stop stop-color="#5D6572"/>
<stop offset="1" stop-color="#727F87"/>
</radialGradient>
<linearGradient id="paint3_linear_9022_8607" x1="219.997" y1="101.145" x2="219.997" y2="109.862" gradientUnits="userSpaceOnUse">
<stop stop-color="#9C9C9E"/>
<stop offset="0.588542" stop-color="#646D7E"/>
<stop offset="1" stop-color="#565D67"/>
</linearGradient>
</defs>
</svg>
